<?xml version="1.0" standalone="no"?>
<!DOCTYPE svg PUBLIC "-//W3C//DTD SVG 20010904//EN"
 "http://www.w3.org/TR/2001/REC-SVG-20010904/DTD/svg10.dtd">
<svg version="1.0" xmlns="http://www.w3.org/2000/svg"
 width="3125.000000pt" height="3125.000000pt" viewBox="0 0 3125.000000 3125.000000"
 preserveAspectRatio="xMidYMid meet">

<g transform="translate(0.000000,3125.000000) scale(0.100000,-0.100000)"
fill="#000000" stroke="none">
<path d="M6320 31149 c-1877 -67 -3625 -927 -4829 -2373 -812 -975 -1321
-2157 -1476 -3421 -14 -118 -15 -1022 -13 -9805 l3 -9675 28 -175 c164 -1030
498 -1898 1047 -2720 241 -360 467 -637 784 -958 529 -536 1090 -945 1751
-1275 834 -416 1703 -641 2655 -687 160 -8 2899 -10 9505 -8 8680 4 9291 5
9450 21 708 71 1277 206 1876 443 1642 649 2958 1935 3645 3561 242 573 393
1144 481 1818 17 134 18 514 21 9645 2 8628 1 9520 -13 9665 -92 925 -374
1814 -829 2615 -844 1483 -2238 2589 -3866 3065 -558 164 -1063 244 -1665 265
-310 11 -18250 10 -18555 -1z m18185 -1469 c1226 -66 2347 -517 3270 -1315
166 -144 461 -444 595 -605 722 -869 1138 -1874 1246 -3012 20 -215 32 -1321
15 -1515 -20 -239 -73 -437 -172 -638 -165 -338 -427 -602 -764 -770 -479
-239 -1013 -246 -1492 -20 -484 229 -828 663 -942 1186 -35 162 -41 294 -41
871 0 444 -3 581 -15 675 -119 908 -825 1610 -1735 1722 -119 15 -17621 15
-17740 1 -131 -17 -270 -47 -388 -85 -131 -43 -356 -153 -477 -233 -478 -318
-795 -829 -870 -1399 -13 -101 -15 -1148 -15 -8918 0 -7770 2 -8817 15 -8918
88 -668 503 -1242 1109 -1532 178 -85 297 -125 522 -172 74 -16 689 -17 8909
-20 6279 -3 8857 -1 8925 7 229 26 430 85 645 190 170 83 289 161 432 285 311
269 529 626 626 1025 52 209 57 294 57 898 0 308 5 606 10 666 21 222 76 412
175 611 378 757 1250 1122 2055 859 580 -190 1014 -675 1140 -1274 37 -178 43
-329 37 -975 -6 -633 -13 -775 -57 -1078 -172 -1183 -714 -2252 -1571 -3092
-529 -519 -1121 -902 -1804 -1170 -558 -219 -1102 -334 -1725 -365 -152 -8
-2787 -10 -9030 -8 -8280 3 -8824 5 -8970 21 -241 27 -372 46 -540 78 -1991
383 -3606 1860 -4165 3810 -118 410 -181 790 -205 1234 -13 246 -13 17594 0
17840 54 988 347 1889 878 2700 957 1462 2547 2363 4302 2438 36 2 4003 4
8815 5 5836 1 8813 -1 8940 -8z m3848 -9373 c387 -82 647 -221 892 -479 200
-210 323 -433 394 -719 109 -433 28 -889 -226 -1274 -88 -133 -292 -337 -423
-424 -234 -156 -465 -240 -742 -270 -135 -15 -15872 -15 -16019 -1 -491 50
-935 324 -1195 738 -102 161 -164 313 -210 508 -26 111 -28 134 -29 339 0 195
3 232 23 325 50 222 142 432 265 607 81 115 257 291 377 375 219 155 495 259
765 287 44 5 3673 8 8065 7 7399 -2 7991 -3 8063 -19z m12 -6249 c457 -96 807
-325 1050 -688 386 -575 358 -1326 -70 -1875 -129 -166 -348 -346 -534 -439
-184 -93 -396 -150 -616 -166 -97 -8 -2583 -10 -8060 -8 l-7920 4 -111 21
c-656 129 -1143 604 -1286 1257 -20 88 -23 130 -22 321 0 242 11 319 74 507
158 471 543 852 1018 1007 89 29 264 67 347 74 22 2 3642 3 8045 2 7440 -1
8011 -2 8085 -17z"/>
</g>
</svg>
